<svg xmlns="http://www.w3.org/2000/svg" width="18" height="18" viewBox="0 0 18 18"><defs><linearGradient id="b77a0ed0-8ea7-4ee0-9885-6cac123d3afd" x1="7.078" x2="7.078" y1="13.541" y2=".159" gradientUnits="userSpaceOnUse"><stop offset=".001" stop-color="#773adc"/><stop offset="1" stop-color="#a67af4"/></linearGradient><linearGradient id="b2ca7954-6fae-4827-8cfb-7d7256d8f488" x1="384.582" x2="379.702" y1="-227.631" y2="-232.511" gradientTransform="matrix(0.7071, -0.7071, -0.7071, -0.7071, -426.6585, 114.859)" gradientUnits="userSpaceOnUse"><stop offset="0" stop-color="#fff" stop-opacity=".7"/><stop offset=".997" stop-color="#fff"/></linearGradient></defs><g id="bbe1eda2-6ca7-4103-8f21-2b00b9552ef5"><g><path fill="url(#b77a0ed0-8ea7-4ee0-9885-6cac123d3afd)" d="M9.2343,10.9392a.4277.4277,0,0,1,.213-.37l3.98-2.3106a.4267.4267,0,0,1,.205-.0566,6.6935,6.6935,0,1,0-4.3976,4.9817Z"/><path fill="#b796f9" d="M1.7426,10.9514a6.7224,6.7224,0,0,0,.9786.9216l1.6615-1.6616-.95-.95Z"/><path fill="url(#b2ca7954-6fae-4827-8cfb-7d7256d8f488)" d="M3.7241,5.3384A3.1871,3.1871,0,0,0,8.2314,9.8457l1.4609-1.462L5.1861,3.8775Z"/><path fill="#f2f2f2" d="M9.3365,2.21l.0887.0888a.48.48,0,0,1,0,.6782L7.5974,4.8051h0l-.7662-.7662h0L8.66,2.21a.48.48,0,0,1,.6782,0Z"/><path fill="#f2f2f2" d="M11.2315,4.1051l.0887.0887a.48.48,0,0,1,0,.6782L9.49,6.702h0L8.724,5.9358h0l1.8307-1.8307a.48.48,0,0,1,.6782,0Z"/><rect width="1.414" height="7.603" x="7.211" y="1.81" fill="#b796f9" rx=".24" transform="translate(-1.6486 7.2427) rotate(-45)"/><polygon fill="#32bedd" points="17.613 10.931 17.613 15.53 13.639 17.841 13.639 13.236 17.613 10.931"/><polygon fill="#9cebff" points="17.613 10.931 13.639 13.242 9.659 10.926 13.639 8.615 17.613 10.931"/><polygon fill="#50e6ff" points="13.639 13.242 13.639 17.841 9.659 15.53 9.659 10.926 13.639 13.242"/></g></g></svg>